<svg id="Layer_1" data-name="Layer 1" xmlns="http://www.w3.org/2000/svg" viewBox="0 0 32 32"><g id="Layer_2" data-name="Layer 2"><g id="Layer_1-2" data-name="Layer 1"><path id="Path_199" data-name="Path 199" d="M8.06,19.6c0-.42.12-.84.21-1.25a15.09,15.09,0,0,1,.39-1.61A2,2,0,0,1,9,16a.7.7,0,0,1,1,0,.69.69,0,0,1,0,1l0,0h0s.09-.13.11-.11-.06.06-.06.09L10,17c0,.11,0-.13,0-.08L10,17c-.08.24-.14.48-.2.73-.14.53-.23,1.06-.32,1.6,0,.17-.06.35-.08.53a.68.68,0,0,1-.8.52h0a.65.65,0,0,1-.43-.31.77.77,0,0,1-.09-.51Z"/><path id="Path_200" data-name="Path 200" d="M13.16,20.48a8.48,8.48,0,0,1-2.87.76,3.94,3.94,0,0,1-1.45-.07,1.26,1.26,0,0,1-.75-.61,1.28,1.28,0,0,1,0-1.13.7.7,0,0,1,.93-.29.73.73,0,0,1,.29.93c0,.05-.05.05,0,0h0l0,0a.29.29,0,0,0,0-.13s-.09-.17,0-.08l-.07-.06c.07,0,0,0,0,0s.08,0,.11,0,0,0,0,0,.13,0,.15,0a6.7,6.7,0,0,0,1.1-.05.9.9,0,0,0,.28,0H11a4.92,4.92,0,0,0,.55-.14,4.68,4.68,0,0,0,.53-.17l.25-.09a.24.24,0,0,1,.14-.05s.18-.09,0,0A.77.77,0,0,1,13,19.2a.65.65,0,0,1,.43.31.69.69,0,0,1-.22.95Z"/><path id="Path_201" data-name="Path 201" d="M22.17,14.47c-.81-2.08-3.85-1.28-5.3-.5a18.15,18.15,0,0,0-5,4.61c-.56.68-1.57-.26-1-.93,1.8-2.12,3.69-4.26,6.33-5.33,2.2-.88,5.32-.83,6.32,1.76C23.8,14.9,22.48,15.3,22.17,14.47Z"/></g></g></svg>