<svg xmlns="http://www.w3.org/2000/svg" viewBox="0 0 19.19 19.35"><defs><style>.cls-1,.cls-2{fill:none;stroke:#3985c0;stroke-miterlimit:10;}.cls-1{stroke-width:1.13px;}</style></defs><g id="Layer_2" data-name="Layer 2"><g id="Layer_1-2" data-name="Layer 1"><path class="cls-1" d="M5,1.41C-.1,4.12.48,7.65.71,10.92c.09,1.33.42,6.16,4.3,7.47,3.41,1.14,11.19-.29,12.46-3,1.16-2.5,1.62-7,.57-9.44S14.55.56,10.85.57A18.49,18.49,0,0,0,5,1.41Z"/><path class="cls-2" d="M13.42,5.13a4.34,4.34,0,0,0-.59.22A7.16,7.16,0,0,0,11.38,7,15.19,15.19,0,0,0,10.11,9.4a.35.35,0,0,1-.63,0A10.62,10.62,0,0,0,7.87,6.88c-.39-.44-2.46-2.14-3.1-.83a1.45,1.45,0,0,0-.14.57.05.05,0,0,1,0,0,1.77,1.77,0,0,0,.12,1A11.83,11.83,0,0,0,5.1,8.78,23.3,23.3,0,0,0,7.54,13c.49.61.92,1.31,1.47,1.87a1.18,1.18,0,0,0,1.5.08,18.42,18.42,0,0,0,1.77-2.36,13.93,13.93,0,0,0,2.2-4.41C14.62,7.57,14.84,4.9,13.42,5.13Z"/></g></g></svg>