<svg xmlns="http://www.w3.org/2000/svg" width="36.584" height="37.006" viewBox="0 0 36.584 37.006">
  <g id="Group_51" data-name="Group 51" transform="translate(-77.541 -168.57)">
    <path id="Path_72" data-name="Path 72" d="M87.033,171.25c-9.754,5.18-8.64,11.907-8.207,18.163.177,2.546.808,11.773,8.207,14.262,6.515,2.191,21.393-.538,23.814-5.786,2.206-4.778,3.095-13.386,1.077-18.028-2.07-4.76-6.66-10.244-13.724-10.225A35.284,35.284,0,0,0,87.033,171.25Z" transform="translate(0 0)" fill="none" stroke="#1a1818" stroke-miterlimit="10" stroke-width="2.13"/>
    <path id="Path_73" data-name="Path 73" d="M85.212,183.2a65.449,65.449,0,0,0,18.061-.12" transform="translate(2.032 4.102)" fill="none" stroke="#1a1818" stroke-miterlimit="10" stroke-width="2.13"/>
    <path id="Path_75" data-name="Path 75" d="M85.212,183.2a65.449,65.449,0,0,0,18.061-.12" transform="translate(279.225 92.792) rotate(90)" fill="none" stroke="#1a1818" stroke-miterlimit="10" stroke-width="2.13"/>
  </g>
</svg>
